# xmcd
#
# Track frame offsets: 
#        150
#        19984
#        39642
#        58010
#        73482
#        87857
#        102455
#        115282
#        132323
#        147648
#        166694
#        183856
#
# Disc length: 2659 seconds
#
# Revision: 0
# Processed by: cddbd v1.5.2PL0 Copyright (c) Steve Scherf et al.
# Submitted via: ExactAudioCopy v0.99pb5
#
DISCID=b10a610c
DTITLE=Will Pearsall - Healing Bone
DYEAR=2010
DGENRE=
TTITLE0=Silent Storm
TTITLE1=No Difference
TTITLE2=Crippled Dog
TTITLE3=Bessie Gibbs
TTITLE4=Black and White
TTITLE5=Healing Bone
TTITLE6=Free
TTITLE7=Nothing to Prove
TTITLE8=Everythin's Alright
TTITLE9=Down the Road
TTITLE10=The Deal
TTITLE11=Shammy Girl
EXTD=
EXTT0=
EXTT1=
EXTT2=
EXTT3=
EXTT4=
EXTT5=
EXTT6=
EXTT7=
EXTT8=
EXTT9=
EXTT10=
EXTT11=
PLAYORDER=
